<?xml version="1.0" standalone="no"?>
<!DOCTYPE svg PUBLIC "-//W3C//DTD SVG 20010904//EN"
 "http://www.w3.org/TR/2001/REC-SVG-20010904/DTD/svg10.dtd">
<svg version="1.0" xmlns="http://www.w3.org/2000/svg"
 width="512.000000pt" height="512.000000pt" viewBox="0 0 512.000000 512.000000"
 preserveAspectRatio="xMidYMid meet">

<g transform="translate(0.000000,512.000000) scale(0.100000,-0.100000)"
fill="#000000" stroke="none">
<path d="M2383 5106 c-194 -37 -363 -118 -511 -246 -78 -68 -88 -126 -28 -166
36 -23 69 -12 128 41 101 91 222 156 365 197 112 32 334 32 446 0 146 -42 257
-102 371 -202 69 -60 111 -67 145 -24 36 46 28 81 -31 136 -123 114 -287 203
-458 248 -109 28 -321 36 -427 16z"/>
<path d="M2431 4789 c-127 -25 -252 -86 -340 -166 -47 -42 -61 -61 -61 -83 0
-42 9 -59 42 -76 38 -19 60 -12 128 44 211 173 509 173 720 0 68 -56 90 -63
128 -44 33 17 42 34 42 76 0 71 -221 212 -382 244 -83 17 -205 19 -277 5z"/>
<path d="M2460 4466 c-64 -17 -112 -42 -158 -81 -47 -41 -58 -74 -38 -114 28
-52 79 -55 145 -7 54 39 100 56 151 56 51 0 97 -17 151 -56 67 -48 117 -45
145 8 26 50 4 89 -83 144 -90 59 -212 78 -313 50z"/>
<path d="M1136 3983 c-214 -45 -398 -186 -491 -376 -87 -177 -80 -45 -80
-1607 0 -1546 -5 -1429 70 -1588 88 -186 253 -326 460 -388 56 -17 140 -19
1420 -22 995 -2 1380 0 1435 8 298 46 539 279 596 576 21 113 21 2715 0 2828
-56 289 -284 516 -574 572 -113 21 -2735 19 -2836 -3z m2815 -157 c156 -33
319 -157 387 -294 66 -133 63 -65 60 -1562 l-3 -1355 -22 -66 c-57 -166 -196
-305 -362 -362 l-66 -22 -1355 -3 c-1498 -3 -1430 -6 -1562 61 -87 43 -203
160 -245 248 -61 127 -58 44 -58 1534 0 1317 1 1372 19 1425 67 196 194 324
381 383 28 9 64 18 80 20 17 2 626 5 1355 5 1101 1 1336 -1 1391 -12z"/>
<path d="M1640 3507 c-49 -16 -133 -102 -148 -153 -8 -29 -12 -136 -12 -346
l0 -304 -29 -28 c-16 -15 -42 -56 -58 -89 -24 -53 -28 -75 -28 -147 0 -72 4
-94 28 -146 36 -77 104 -145 182 -181 51 -24 73 -28 145 -28 72 0 94 4 145 28
78 36 146 104 182 181 24 52 28 74 28 146 0 72 -4 94 -28 147 -16 33 -42 74
-58 89 l-29 28 0 304 c0 207 -4 317 -12 344 -17 59 -88 133 -145 152 -53 18
-112 19 -163 3z m135 -172 l25 -24 0 -335 0 -336 48 -48 c75 -75 90 -156 46
-248 -53 -112 -222 -136 -314 -44 -83 83 -78 201 12 291 l48 48 0 336 0 336
25 24 c15 16 36 25 55 25 19 0 40 -9 55 -25z"/>
<path d="M3482 3507 c-18 -8 -69 -101 -193 -349 -93 -186 -169 -349 -169 -363
0 -14 11 -37 25 -50 24 -25 26 -25 205 -25 100 0 180 -4 178 -8 -1 -5 -76
-126 -165 -269 -107 -170 -163 -269 -163 -287 0 -54 69 -93 119 -66 26 13 441
682 441 709 0 12 -13 36 -29 52 l-29 29 -186 0 -186 0 135 270 c74 148 135
279 135 291 0 26 -52 79 -77 78 -10 0 -29 -5 -41 -12z"/>
<path d="M1683 1747 c-49 -27 -241 -306 -317 -461 -71 -144 -89 -207 -93 -326
-5 -124 12 -195 71 -283 46 -69 106 -119 193 -159 116 -55 269 -51 388 9 109
54 190 150 227 267 24 76 26 198 4 283 -40 153 -147 352 -296 552 -95 127
-125 147 -177 118z m109 -298 c234 -342 279 -568 140 -712 -114 -119 -284
-126 -404 -18 -147 132 -132 319 50 621 68 113 133 201 145 197 6 -2 37 -41
69 -88z"/>
<path d="M3211 1730 c-156 -86 -287 -259 -341 -452 -30 -104 -37 -273 -16
-362 33 -139 137 -285 251 -352 260 -152 580 -87 751 152 68 95 95 177 101
299 9 174 -39 297 -163 422 -91 93 -187 142 -235 123 -53 -22 -59 -53 -33
-162 14 -58 15 -72 3 -109 -17 -52 -54 -81 -104 -81 -118 0 -155 159 -85 361
37 104 38 134 5 166 -32 33 -68 31 -134 -5z m-68 -304 c-3 -24 0 -74 6 -111
29 -163 115 -253 254 -263 90 -7 143 13 207 77 52 52 59 65 86 160 7 24 39
-14 70 -82 36 -81 44 -188 19 -273 -33 -116 -108 -203 -224 -258 -60 -28 -75
-31 -161 -31 -86 0 -101 3 -161 31 -159 75 -239 206 -239 388 0 92 18 179 54
260 22 49 82 146 90 146 2 0 1 -20 -1 -44z"/>
</g>
</svg>
